<svg width="30" height="30" viewBox="0 0 30 30" fill="none" xmlns="http://www.w3.org/2000/svg">
<path d="M5.32428 12.6833C4.98373 15.2883 4.77686 17.9354 4.71078 20.6174C8.33076 22.1288 11.7738 23.9794 15.0001 26.1295C18.2265 23.9794 21.6695 22.1288 25.2895 20.6174C25.2234 17.9355 25.0165 15.2884 24.676 12.6834M5.32428 12.6833C4.22965 12.3154 3.12174 11.9763 2.00146 11.6671C6.0582 8.82358 10.4094 6.3715 15.0002 4.36569C19.591 6.3715 23.9422 8.82359 27.9989 11.6671C26.8786 11.9764 25.7706 12.3154 24.676 12.6834M5.32428 12.6833C8.68333 13.8124 11.9174 15.2136 15.0002 16.8608C18.083 15.2136 21.317 13.8124 24.676 12.6834M8.43762 18.75C8.95539 18.75 9.37512 18.3303 9.37512 17.8125C9.37512 17.2947 8.95539 16.875 8.43762 16.875C7.91986 16.875 7.50012 17.2947 7.50012 17.8125C7.50012 18.3303 7.91986 18.75 8.43762 18.75ZM8.43762 18.75V14.1556C10.552 12.8419 12.7422 11.6387 15.0001 10.5541M6.24092 24.9908C7.70539 23.5263 8.43762 21.6069 8.43762 19.6875V17.8125" stroke="#8C8A96" stroke-width="1.875" stroke-linecap="round" stroke-linejoin="round"/>
</svg>
