<svg width="25" height="25" viewBox="0 0 25 25" fill="none" xmlns="http://www.w3.org/2000/svg">
<path d="M16.6895 12.9648C16.6895 15.4501 14.6747 17.4648 12.1895 17.4648C9.70417 17.4648 7.68945 15.4501 7.68945 12.9648C7.68945 10.4796 9.70417 8.46484 12.1895 8.46484C14.6747 8.46484 16.6895 10.4796 16.6895 12.9648ZM16.6895 12.9648C16.6895 14.6217 17.6968 15.9648 18.9395 15.9648C20.1821 15.9648 21.1895 14.6217 21.1895 12.9649C21.1895 10.6616 20.3108 8.35825 18.5534 6.60088C15.0387 3.08616 9.34021 3.08616 5.82549 6.60088C2.31077 10.1156 2.31077 15.8141 5.82549 19.3288C9.34021 22.8435 15.0387 22.8435 18.5534 19.3288M16.6895 12.9648V9.21484" stroke="#E6E6E8" stroke-width="1.5" stroke-linecap="round" stroke-linejoin="round"/>
</svg>
