<svg width="56" height="56" viewBox="0 0 56 56" fill="none" xmlns="http://www.w3.org/2000/svg">
<path d="M22.3856 9.19357C22.5966 7.92783 23.6917 7.00012 24.9749 7.00012H31.0275C32.3107 7.00012 33.4058 7.92783 33.6168 9.19358L34.115 12.1827C34.2604 13.0555 34.8437 13.7825 35.6178 14.211C35.7909 14.3068 35.962 14.4057 36.131 14.5078C36.8894 14.9658 37.8118 15.1081 38.6415 14.7973L41.4808 13.7336C42.6825 13.2834 44.0335 13.768 44.6751 14.8793L47.7014 20.121C48.343 21.2322 48.0871 22.6445 47.0964 23.4601L44.7529 25.3893C44.0704 25.9512 43.7321 26.8188 43.7485 27.7027C43.7503 27.8016 43.7512 27.9008 43.7512 28.0001C43.7512 28.0995 43.7503 28.1986 43.7485 28.2975C43.7321 29.1814 44.0704 30.049 44.7529 30.6109L47.0964 32.5401C48.0871 33.3557 48.343 34.768 47.7014 35.8793L44.6751 41.121C44.0335 42.2322 42.6825 42.7168 41.4808 42.2666L38.6415 41.2029C37.8119 40.8921 36.8894 41.0345 36.131 41.4924C35.962 41.5945 35.7909 41.6935 35.6178 41.7893C34.8437 42.2178 34.2604 42.9448 34.115 43.8176L33.6168 46.8067C33.4058 48.0724 32.3107 49.0001 31.0275 49.0001H24.9749C23.6917 49.0001 22.5966 48.0724 22.3856 46.8067L21.8874 43.8176C21.742 42.9448 21.1587 42.2178 20.3846 41.7893C20.2115 41.6935 20.0404 41.5945 19.8714 41.4925C19.113 41.0345 18.1906 40.8921 17.3609 41.2029L14.5216 42.2666C13.3199 42.7168 11.9689 42.2323 11.3273 41.121L8.30105 35.8793C7.65945 34.768 7.91531 33.3558 8.90599 32.5402L11.2495 30.6109C11.932 30.0491 12.2703 29.1814 12.254 28.2976C12.2521 28.1986 12.2512 28.0995 12.2512 28.0001C12.2512 27.9008 12.2521 27.8016 12.254 27.7027C12.2703 26.8188 11.932 25.9512 11.2495 25.3893L8.90599 23.4601C7.9153 22.6445 7.65945 21.2323 8.30105 20.121L11.3273 14.8793C11.9689 13.768 13.3199 13.2835 14.5216 13.7336L17.3609 14.7973C18.1905 15.1082 19.113 14.9658 19.8714 14.5078C20.0404 14.4057 20.2115 14.3068 20.3846 14.211C21.1587 13.7825 21.742 13.0555 21.8874 12.1827L22.3856 9.19357Z" stroke="white" stroke-width="3.5" stroke-linecap="round" stroke-linejoin="round"/>
<path d="M35.0007 27.9999C35.0007 31.8659 31.8667 34.9999 28.0007 34.9999C24.1347 34.9999 21.0007 31.8659 21.0007 27.9999C21.0007 24.1339 24.1347 20.9999 28.0007 20.9999C31.8667 20.9999 35.0007 24.1339 35.0007 27.9999Z" stroke="white" stroke-width="3.5" stroke-linecap="round" stroke-linejoin="round"/>
</svg>
