<svg width="25" height="25" viewBox="0 0 25 25" fill="none" xmlns="http://www.w3.org/2000/svg">
<path d="M4.68718 9.09373C3.76407 10.185 3.05966 11.4672 2.6416 12.8726C3.9329 17.2091 7.95035 20.3712 12.7063 20.3712C13.6989 20.3712 14.6593 20.2334 15.5695 19.976M6.93487 7.09878C8.59113 6.00674 10.575 5.37115 12.7072 5.37115C17.4632 5.37115 21.4807 8.5332 22.772 12.8697C22.0601 15.263 20.5178 17.2989 18.4793 18.6432M6.93487 7.09878L3.70725 3.87115M6.93487 7.09878L10.5859 10.7498M18.4793 18.6432L21.7072 21.8712M18.4793 18.6432L14.8286 14.9925M14.8286 14.9925C15.3715 14.4496 15.7072 13.6996 15.7072 12.8712C15.7072 11.2143 14.3641 9.87115 12.7072 9.87115C11.8788 9.87115 11.1288 10.2069 10.5859 10.7498M14.8286 14.9925L10.5859 10.7498" stroke="#E6E6E8" stroke-width="1.5" stroke-linecap="round" stroke-linejoin="round"/>
</svg>
